<svg width="94" height="101" viewBox="0 0 94 101" fill="none" xmlns="http://www.w3.org/2000/svg">
<path d="M49.5597 1.05967C49.2239 0.723767 48.8249 0.457268 48.3857 0.275433C47.9464 0.0935979 47.4755 0 47 0C46.5245 0 46.0536 0.0935979 45.6143 0.275433C45.1751 0.457268 44.7761 0.723767 44.4403 1.05967L1.0557 44.3426C0.720177 44.6782 0.454243 45.0765 0.2731 45.5146C0.091957 45.9528 -0.000842743 46.4223 5.7665e-06 46.8963V97.3931C5.7665e-06 98.3497 0.380911 99.2671 1.05893 99.9436C1.73694 100.62 2.65653 101 3.61539 101H36.1538C37.1127 101 38.0323 100.62 38.7103 99.9436C39.3883 99.2671 39.7692 98.3497 39.7692 97.3931V68.5378H54.2308V97.3931C54.2308 98.3497 54.6117 99.2671 55.2897 99.9436C55.9677 100.62 56.8873 101 57.8462 101H90.3846C91.3435 101 92.2631 100.62 92.9411 99.9436C93.6191 99.2671 94 98.3497 94 97.3931V46.8963C94.0008 46.4223 93.908 45.9528 93.7269 45.5146C93.5458 45.0765 93.2798 44.6782 92.9443 44.3426L83.1538 34.5823V10.8272C83.1538 9.87057 82.7729 8.95314 82.0949 8.27671C81.4169 7.60029 80.4973 7.22027 79.5385 7.22027H72.3077C71.3488 7.22027 70.4292 7.60029 69.7512 8.27671C69.0732 8.95314 68.6923 9.87057 68.6923 10.8272V20.1547L49.5597 1.05967ZM7.23077 93.7862V48.3896L47 8.71354L86.7692 48.3896V93.7862H61.4615V64.9309C61.4615 63.9743 61.0806 63.0568 60.4026 62.3804C59.7246 61.704 58.805 61.324 57.8462 61.324H36.1538C35.195 61.324 34.2754 61.704 33.5974 62.3804C32.9194 63.0568 32.5385 63.9743 32.5385 64.9309V93.7862H7.23077Z" fill="black"/>
</svg>
