<svg width="500" height="500" viewBox="0 0 500 500" fill="none" xmlns="http://www.w3.org/2000/svg">
<g clip-path="url(#clip0_1_80)">
<path d="M250 0C225.406 0 209.625 18.5 200.875 35.9688C192.218 54.01 187.651 73.7399 187.5 93.75V209.094L125 240.344V234.375C125 230.231 123.354 226.257 120.424 223.326C117.493 220.396 113.519 218.75 109.375 218.75H78.125C73.981 218.75 70.0067 220.396 67.0765 223.326C64.1462 226.257 62.5 230.231 62.5 234.375V271.594L25.9375 289.875C18.1448 293.765 11.5901 299.75 7.0087 307.158C2.42727 314.565 0.000294219 323.103 0 331.812L0 375C0.00104406 377.268 0.495866 379.509 1.45009 381.566C2.40432 383.624 3.79506 385.449 5.52572 386.915C7.25638 388.381 9.28546 389.453 11.472 390.056C13.6585 390.659 15.9501 390.778 18.1875 390.406L69.1562 381.906L78.9375 411.188C79.9794 414.291 81.9698 416.989 84.6276 418.9C87.2854 420.811 90.4763 421.84 93.75 421.84C97.0237 421.84 100.215 420.811 102.872 418.9C105.53 416.989 107.521 414.291 108.562 411.188L121.219 373.25L190.281 361.719L202 432.125L160.812 473.312C158.622 475.498 157.129 478.284 156.524 481.319C155.919 484.354 156.228 487.5 157.413 490.358C158.598 493.217 160.605 495.659 163.18 497.376C165.754 499.092 168.781 500.006 171.875 500H328.125C331.219 500.006 334.246 499.092 336.82 497.376C339.395 495.659 341.402 493.217 342.587 490.358C343.772 487.5 344.081 484.354 343.476 481.319C342.871 478.284 341.378 475.498 339.188 473.312L298 432.125L309.719 361.719L378.781 373.25L391.438 411.188C392.479 414.291 394.47 416.989 397.128 418.9C399.785 420.811 402.976 421.84 406.25 421.84C409.524 421.84 412.715 420.811 415.372 418.9C418.03 416.989 420.021 414.291 421.062 411.188L430.844 381.906L481.781 390.406C484.021 390.783 486.316 390.667 488.506 390.067C490.697 389.466 492.73 388.396 494.464 386.929C496.198 385.463 497.592 383.635 498.548 381.575C499.504 379.515 500 377.271 500 375V331.812C500 323.103 497.573 314.565 492.991 307.158C488.41 299.75 481.855 293.765 474.062 289.875L437.5 271.594V234.375C437.5 230.231 435.854 226.257 432.924 223.326C429.993 220.396 426.019 218.75 421.875 218.75H390.625C386.481 218.75 382.507 220.396 379.576 223.326C376.646 226.257 375 230.231 375 234.375V240.344L312.5 209.094V93.75C312.5 76 308.125 54.0312 299.125 35.9688C290.375 18.4688 274.594 0 250 0Z" fill="white"/>
</g>
<defs>
<clipPath id="clip0_1_80">
<rect width="500" height="500" fill="white"/>
</clipPath>
</defs>
</svg>
